<?xml version="1.0" encoding="UTF-8"?>
<svg version="1.1" xmlns="http://www.w3.org/2000/svg" width="2000" height="1654">
<path d="M0 0 C660 0 1320 0 2000 0 C2000 392.37 2000 784.74 2000 1189 C1340 1189 680 1189 0 1189 C0 796.63 0 404.26 0 0 Z " fill="#ED1C24" transform="translate(0,0)"/>
<path d="M0 0 C2.50227864 0.00107135 5.00455729 0.00212946 7.50683594 0.00317383 C51.36823564 0.03394386 95.22615746 0.5906496 139.0625 2.125 C141.54678192 2.2093297 144.03107616 2.29329702 146.51538086 2.37695312 C150.580281 2.51387885 154.64517181 2.65100796 158.71000671 2.78985596 C169.98936011 3.17403238 181.269517 3.52984462 192.54992676 3.88147354 C198.65999508 4.07259719 204.7699612 4.26696111 210.87992477 4.46140099 C215.88717927 4.6205453 220.89447397 4.77796851 225.9019165 4.93109131 C246.1611687 5.55201781 266.36023979 6.30521729 286.57446289 7.82617188 C293.50672852 8.34510985 300.42484161 8.59876222 307.375 8.75 C318.14838101 9.05394899 328.87320028 9.61686912 339.62280273 10.38330078 C347.81710744 10.95958767 356.01230052 11.46116407 364.21484375 11.90625 C365.2727713 11.96374924 366.33069885 12.02124847 367.42068481 12.08049011 C369.62908893 12.20042694 371.83749348 12.32035578 374.04589844 12.4402771 C395.02320308 13.5828018 415.96935357 14.97030083 436.91635132 16.57406616 C452.80197054 17.78946364 468.68324318 18.86450655 484.59594727 19.65454102 C485.91135498 19.72084717 487.2267627 19.78715332 488.58203125 19.85546875 C489.69940674 19.90856201 490.81678223 19.96165527 491.96801758 20.01635742 C494.59712835 20.19340752 497.17435892 20.43878073 499.78833008 20.74731445 C504.41607315 21.28124374 509.02694384 21.50262978 513.6796875 21.6875 C524.34842133 22.16853872 534.94028802 23.17003938 545.5625 24.25 C556.41596849 25.34903519 567.23920525 26.36008563 578.13597107 26.90556335 C584.82291356 27.24667531 591.46549857 27.86946576 598.125 28.5625 C613.9444494 30.15429942 629.78270203 31.49341827 645.62768555 32.80395508 C654.92391471 33.5772776 664.20798969 34.40056421 673.48234558 35.4037323 C680.72714888 36.18495118 687.97756224 36.90627122 695.2291832 37.62090492 C697.42848583 37.8377447 699.62772041 38.05526228 701.82693481 38.272995 C710.91770332 39.17303557 710.91770332 39.17303557 720.0090332 40.06738281 C739.91312833 42.02009071 759.78011136 44.18069516 779.63747501 46.5614872 C785.81186941 47.29959119 791.99075911 47.99273076 798.171875 48.671875 C822.43652803 51.34824601 846.66659052 54.23351609 870.875 57.375 C872.13896606 57.53899292 873.40293213 57.70298584 874.7052002 57.87194824 C882.05050515 58.8270512 889.39456235 59.79135587 896.737854 60.7618103 C900.54286449 61.26390345 904.34832717 61.76247634 908.15380859 62.26098633 C923.1927077 64.23883478 938.19879081 66.3611016 953.1875 68.6875 C957.14299046 69.29712963 961.09880733 69.90462361 965.0546875 70.51171875 C966.50507919 70.73464096 966.50507919 70.73464096 967.98477173 70.96206665 C974.11396997 71.90170957 980.24625207 72.81677775 986.3828125 73.70703125 C987.15238281 73.81885239 987.92195313 73.93067352 988.71484375 74.04588318 C992.23600355 74.55666432 995.7576799 75.0634157 999.28027344 75.56420898 C1007.202002 76.70840173 1015.05556431 78.06465713 1022.91381836 79.57519531 C1029.5737831 80.85061571 1036.24757459 81.96371604 1042.96875 82.86328125 C1052.33149038 84.1239458 1061.59600572 85.60359401 1070.8515625 87.50390625 C1073.0577547 87.95096596 1075.26405805 88.39747747 1077.47045898 88.84350586 C1078.61126923 89.07456024 1079.75207947 89.30561462 1080.92745972 89.54367065 C1086.82625473 90.7306918 1092.7314752 91.88462586 1098.63671875 93.0390625 C1100.42039101 93.38837074 1100.42039101 93.38837074 1102.24009705 93.74473572 C1107.10282574 94.69701539 1111.96570763 95.64850586 1116.82885742 96.59863281 C1134.20414584 99.99442472 1151.51239384 103.51767328 1168.75 107.5625 C1170.06273955 107.86972992 1171.37548378 108.17693982 1172.68823242 108.48413086 C1182.92094158 110.88169327 1193.14381773 113.31945726 1203.359375 115.7890625 C1207.46980774 116.78155577 1211.58439447 117.75347966 1215.703125 118.7109375 C1230.10612937 122.07617759 1244.27771312 125.98131338 1258.4375 130.25 C1260.15084817 130.76106582 1261.86438255 131.27150786 1263.578125 131.78125 C1267.66935073 133.00003304 1271.75628778 134.2325688 1275.84228516 135.46875 C1278.63609535 136.30978411 1281.43313941 137.13950034 1284.23046875 137.96875 C1294.79501872 141.1177569 1305.17914166 144.4628063 1315.44384766 148.48779297 C1317.84921395 149.40740521 1320.27151463 150.27468149 1322.6953125 151.14453125 C1360.59540493 164.88137315 1413.20682739 184.38088581 1433.4375 222.25 C1434.08525391 223.3946875 1434.08525391 223.3946875 1434.74609375 224.5625 C1439.97492355 235.27345932 1438.42008391 248.86864662 1434.81640625 259.85546875 C1425.64634766 282.42991893 1407.44269991 300.61733785 1388.19091797 314.94091797 C1386.46918304 316.2263458 1384.76708483 317.53454895 1383.06640625 318.84765625 C1365.29828801 332.40237881 1345.82434937 343.45296179 1326.08837891 353.84667969 C1323.75998769 355.07928171 1321.44545444 356.33266423 1319.13671875 357.6015625 C1289.43664956 373.83672551 1257.55768786 386.84832037 1226.08544922 399.20581055 C1223.4971734 400.22646846 1220.91622355 401.26402379 1218.3359375 402.3046875 C1213.52702445 404.23139642 1208.67909969 406.03738782 1203.8125 407.8125 C1202.21606325 408.39690988 1200.61970825 408.98154311 1199.0234375 409.56640625 C1198.3329834 409.81849854 1197.6425293 410.07059082 1196.93115234 410.33032227 C1194.85915658 411.09448988 1192.79143589 411.87023722 1190.72485352 412.64892578 C1186.25059168 414.3283334 1181.75491966 415.9446725 1177.25390625 417.55078125 C1176.37723801 417.86389252 1175.50056976 418.17700378 1174.59733582 418.49960327 C1156.16143054 425.07777049 1137.70465745 431.59132371 1119.1875 437.9375 C1118.35848175 438.22291656 1117.5294635 438.50833313 1116.67532349 438.80239868 C1107.59647521 441.92471436 1098.49961993 444.88116544 1089.27507019 447.54447937 C1083.79302385 449.12918701 1078.39278182 450.88802942 1073 452.75 C1065.81948538 455.18715075 1058.62184571 457.37622042 1051.29907227 459.34033203 C1045.45032476 460.92515394 1039.69816078 462.74732929 1033.9375 464.625 C1024.7688632 467.60140997 1015.52598249 470.16233471 1006.20581055 472.61791992 C998.83596569 474.57119454 991.5339491 476.68569121 984.25 478.9375 C975.69246103 481.57876004 967.1154587 484.03180937 958.4375 486.25 C953.97839684 487.39285487 949.5201132 488.53884718 945.0625 489.6875 C943.29495361 490.14249878 943.29495361 490.14249878 941.49169922 490.60668945 C934.38518472 492.44836796 927.33614336 494.41354913 920.31176758 496.54443359 C914.24293769 498.3624423 908.10953067 499.78949882 901.92578125 501.16015625 C898.30935541 501.99971381 894.75649657 503.00755435 891.19140625 504.04296875 C881.86836185 506.73571294 872.46683537 509.10983976 863.0625 511.5 C861.1504585 511.98717029 859.23843068 512.4743943 857.32641602 512.96166992 C851.69774865 514.39495107 846.06775479 515.82296968 840.4375 517.25 C839.24160248 517.55348358 839.24160248 517.55348358 838.02154541 517.86309814 C821.88387366 521.95829848 805.72533277 525.92682638 789.4921875 529.62890625 C780.96244622 531.57895003 772.45064049 533.60399843 763.9375 535.625 C762.29298046 536.01502332 760.64844917 536.40499714 759.00390625 536.79492188 C753.41699486 538.11971539 747.83011622 539.44464769 742.24353027 540.77081299 C694.8310562 552.02523399 647.26259717 562.47836858 599.59545898 572.59179688 C586.51480475 575.3692747 573.44493866 578.19179912 560.39135742 581.09399414 C554.09935768 582.4853059 547.81575091 583.76493178 541.45800781 584.8203125 C539.45039753 585.05558463 539.45039753 585.05558463 538.4375 586.25 C536.0019163 586.72978249 533.57359637 587.1596664 531.125 587.5625 C524.33502602 588.72099631 517.56853544 589.96985362 510.8125 591.3125 C509.57052856 591.55577026 509.57052856 591.55577026 508.3034668 591.80395508 C504.82565079 592.49980071 501.44456466 593.2479212 498.0390625 594.25 C493.22367944 595.5870261 488.3640066 596.3712117 483.4375 597.1875 C474.3997499 598.72063223 465.41635499 600.40108658 456.4375 602.25 C453.88594395 602.74373818 451.33435867 603.23701058 448.78125 603.72265625 C446.89509254 604.14704168 445.03158615 604.671437 443.1796875 605.2265625 C439.14554838 606.32984481 435.19468308 606.97294632 431.0625 607.5625 C423.78877289 608.66032747 416.58215673 609.96648056 409.375 611.4375 C398.13941947 613.72408266 386.88784373 615.91465868 375.625 618.0625 C374.30733139 618.31430527 374.30733139 618.31430527 372.96304321 618.57119751 C362.34896931 620.59726713 351.72677312 622.57006971 341.08984375 624.47265625 C339.57329445 624.74469627 339.57329445 624.74469627 338.02610779 625.02223206 C333.11933655 625.9018393 328.21152411 626.77464295 323.30151367 627.63598633 C321.52649012 627.95241337 319.75150436 628.2690525 317.9765625 628.5859375 C317.16811386 628.72520157 316.35966522 628.86446564 315.52671814 629.00794983 C311.84008018 629.67206131 308.7138891 630.42978384 305.4375 632.25 C303.05177023 632.63205637 300.65283908 632.93444273 298.25 633.1875 C290.47438935 634.01230731 282.82143866 635.37486318 275.13150024 636.76431274 C271.07198538 637.49618151 267.01076096 638.21841117 262.94975281 638.94194031 C257.00780943 640.00094934 251.06645795 641.06327154 245.125 642.125 C241.54964557 642.76372585 237.9742823 643.40240217 234.39891052 644.04103088 C232.01888229 644.46624818 229.63888748 644.89165256 227.25892639 645.31724548 C221.10163564 646.41811155 214.94377769 647.51564219 208.78491211 648.60766602 C206.90827629 648.94104477 206.90827629 648.94104477 204.99372864 649.28115845 C202.62411257 649.70202587 200.25432308 650.12191866 197.88432312 650.5406189 C191.11023138 651.74502113 184.36247365 653.04318807 177.625 654.4375 C170.79605661 655.83576968 164.01800244 656.95048842 157.08984375 657.7578125 C152.17293954 658.42041136 147.31478229 659.34567491 142.4375 660.25 C119.64011708 664.3365825 96.76314978 667.90358069 73.875 671.4375 C73.0185791 671.5700116 72.1621582 671.70252319 71.27978516 671.83905029 C68.81041354 672.22078288 66.34079508 672.60087585 63.87109375 672.98046875 C62.7724424 673.15054192 62.7724424 673.15054192 61.65159607 673.3240509 C56.92197087 674.04850777 52.18763159 674.67464135 47.4375 675.25 C51.93344623 666.29916642 57.39984738 658.04191262 62.88671875 649.6796875 C66.39034826 644.33816724 69.82805096 638.95660945 73.25 633.5625 C82.79772219 618.52654801 92.36781939 603.50424562 102.0625 588.5625 C106.71734178 581.38773732 111.31263983 574.17594601 115.89941406 566.95751953 C122.37761358 556.76424233 128.89131654 546.59378956 135.40527344 536.42333984 C137.41914742 533.27865771 139.43237257 530.13356135 141.4453125 526.98828125 C142.4355542 525.44140625 142.4355542 525.44140625 143.44580078 523.86328125 C144.76563371 521.80021316 146.08433296 519.73641934 147.40185547 517.671875 C150.5290142 512.77490383 153.66778191 507.88658097 156.84814453 503.02401733 C158.35386575 500.72031653 159.85296759 498.41234491 161.3515625 496.10400391 C162.41543049 494.47136836 163.48887048 492.84498294 164.5625 491.21875 C165.201875 490.23261719 165.84125 489.24648438 166.5 488.23046875 C167.35271484 486.92952271 167.35271484 486.92952271 168.22265625 485.60229492 C169.74341227 483.09891008 169.74341227 483.09891008 169.4375 479.25 C167.39537076 477.07162132 165.37211999 475.14859205 163.13256836 473.19116211 C161.73894424 471.93205769 160.34820152 470.66975878 158.95993042 469.40475464 C158.21984112 468.73127361 157.47975182 468.05779259 156.71723557 467.36390305 C152.82551901 463.75527772 149.08103506 460.00238822 145.33422852 456.24438477 C144.13833807 455.04677977 144.13833807 455.04677977 142.91828823 453.82498074 C141.24789483 452.15017336 139.57848835 450.47438115 137.91000557 448.79767036 C135.25008489 446.12476103 132.58685547 443.45518585 129.9228363 440.78636169 C124.27903428 435.13125266 118.63920691 429.47219008 113 423.8125 C106.43302179 417.22174317 99.86428436 410.63275899 93.29136467 404.04792595 C90.67927508 401.42939921 88.07023501 398.80786056 85.46131897 396.18617249 C83.85269807 394.57391765 82.24393581 392.96180384 80.63500977 391.34985352 C79.92057709 390.63025452 79.20614441 389.91065552 78.47006226 389.16925049 C75.24714067 385.94599443 71.99267573 382.82131676 68.53623962 379.84873962 C63.67774323 375.65493441 59.18318222 371.1200428 54.66015625 366.5703125 C53.70667602 365.61490844 52.75296442 364.65973524 51.79904175 363.70477295 C49.76024161 361.66283416 47.72299993 359.61935811 45.6869812 357.574646 C42.46086223 354.33489546 39.23083478 351.0990602 36.00024414 347.86376953 C28.5610886 340.4126205 21.1269769 332.95644586 13.69291687 325.50021362 C6.87405098 318.66111513 0.05409904 311.82310883 -6.76992512 304.98915672 C-9.97463433 301.77949561 -13.17689675 298.56741994 -16.37724304 295.35340881 C-18.37544829 293.34769189 -20.37577031 291.34409602 -22.37664413 289.34104156 C-23.73174742 287.98320409 -25.08432546 286.62284789 -26.4367981 285.26239014 C-30.05601461 281.642864 -33.68115241 278.08864097 -37.5625 274.75 C-42.39295427 270.5949605 -46.84972566 266.08694063 -51.33984375 261.5703125 C-52.29332398 260.61490844 -53.24703558 259.65973524 -54.20095825 258.70477295 C-56.23975839 256.66283416 -58.27700007 254.61935811 -60.3130188 252.574646 C-63.53913777 249.33489546 -66.76916522 246.0990602 -69.99975586 242.86376953 C-77.4389114 235.4126205 -84.8730231 227.95644586 -92.30708313 220.50021362 C-99.12594902 213.66111513 -105.94590096 206.82310883 -112.76992512 199.98915672 C-115.97463433 196.77949561 -119.17689675 193.56741994 -122.37724304 190.35340881 C-124.37544829 188.34769189 -126.37577031 186.34409602 -128.37664413 184.34104156 C-129.73174742 182.98320409 -131.08432546 181.62284789 -132.4367981 180.26239014 C-136.69904086 175.99978273 -141.03218316 171.91492783 -145.60160828 167.98504639 C-149.23949144 164.76615573 -152.63302575 161.30088625 -156.0546875 157.85546875 C-156.8623053 157.04639069 -157.6699231 156.23731262 -158.50201416 155.40371704 C-160.24255535 153.6593918 -161.9819411 151.913913 -163.72027588 150.16738892 C-166.4763214 147.39849766 -169.23555047 144.63281417 -171.99560547 141.86791992 C-178.35109459 135.50045092 -184.70153107 129.1279507 -191.0519104 122.75538635 C-197.34269779 116.44273579 -203.63549509 110.13210543 -209.93170166 103.82485962 C-212.6412678 101.10884228 -215.34778828 98.38981515 -218.05419922 95.6706543 C-219.72608772 93.995131 -221.39811806 92.31974921 -223.0703125 90.64453125 C-224.1865097 89.52058456 -224.1865097 89.52058456 -225.32525635 88.37393188 C-229.30751407 84.39127665 -233.39030632 80.60722419 -237.65499878 76.92969894 C-240.70537761 74.24360992 -243.56943787 71.38248302 -246.4375 68.50439453 C-247.39022545 67.55429756 -247.39022545 67.55429756 -248.36219788 66.58500671 C-250.43146382 64.52009273 -252.49710929 62.45160204 -254.5625 60.3828125 C-256.00823619 58.93775067 -257.45412074 57.49283726 -258.90014648 56.04806519 C-261.91406148 53.03561761 -264.92617712 50.0213856 -267.93701172 47.00585938 C-271.80527016 43.13186821 -275.67804911 39.26243196 -279.55215454 35.39428902 C-282.53065203 32.41939244 -285.50677939 29.44213399 -288.48217773 26.46413803 C-289.91046659 25.03518045 -291.33950317 23.60696985 -292.76928711 22.17950821 C-294.75616521 20.19515276 -296.73983856 18.20764984 -298.72265625 16.21923828 C-299.31788589 15.62603287 -299.91311554 15.03282745 -300.52638245 14.42164612 C-304.5625 10.36426966 -304.5625 10.36426966 -304.5625 9.25 C-300.1334867 8.19990053 -295.72498811 7.95761185 -291.1953125 7.75 C-290.37584137 7.70971176 -289.55637024 7.66942352 -288.71206665 7.62791443 C-286.03738874 7.4978768 -283.36247659 7.37372912 -280.6875 7.25 C-278.83625988 7.16160543 -276.98502293 7.07314461 -275.13378906 6.98461914 C-262.64220957 6.39624469 -250.15017558 5.91836558 -237.64892578 5.59179688 C-232.28919991 5.44427458 -226.97985642 5.21874095 -221.640625 4.72265625 C-220.63171387 4.66182234 -219.62280273 4.60098843 -218.58331853 4.53831106 C-216.42273706 4.40688081 -214.30160819 4.21572321 -212.15457918 3.93363976 C-203.18949016 2.77713638 -194.24799282 1.91767658 -186.4801203 7.23797143 C-181.11472081 11.57215877 -176.40833993 16.54539368 -171.65766907 21.5302887 C-169.78004414 23.4129283 -167.8983241 25.29044366 -166.01052731 27.16277927 C-161.92987676 31.22817217 -157.89356665 35.33367964 -153.88412666 39.46927071 C-147.92200296 45.61844332 -141.89379959 51.69959197 -135.8502742 57.76865012 C-125.68149277 67.98372468 -115.56570997 78.24975088 -105.47786903 88.54471016 C-91.69940561 102.60472643 -77.84631631 116.58940989 -63.97269263 130.55546319 C-57.50270971 137.06877452 -51.03644895 143.58577897 -44.571208 150.10379696 C-43.92409095 150.7561898 -43.2769739 151.40858264 -42.61024724 152.08074496 C-27.22329357 167.59491763 -11.87329927 183.14550735 3.47094727 198.7019043 C4.14197913 199.38218848 4.81301098 200.06247267 5.50437714 200.76337152 C12.98512794 208.34732087 20.46511603 215.93202216 27.94471741 223.5171051 C41.559024 237.32336859 55.1755907 251.12740071 68.79516602 264.9284668 C69.46627509 265.6085453 70.13738416 266.2886238 70.82882987 266.98931075 C86.15510624 282.52005248 101.49113736 298.04100123 116.85658741 313.53299618 C117.50258079 314.18431922 118.14857417 314.83564227 118.8141431 315.50670237 C125.26394426 322.00930075 131.71536169 328.51029092 138.16924208 335.00884067 C152.02475399 348.96104198 165.84978456 362.94164033 179.61555842 376.98242342 C189.64842603 387.21490081 199.71688522 397.41113166 209.82353099 407.57075638 C215.82424518 413.6054954 221.79327746 419.66807736 227.72107677 425.77447144 C231.68684262 429.85390889 235.6899998 433.8939805 239.72521499 437.90472725 C242.02201831 440.18983654 244.29242861 442.49306774 246.53100296 444.83543784 C256.01381527 455.36718772 256.01381527 455.36718772 268.80276072 460.10368335 C273.03219135 460.08286268 277.0684843 459.55035878 281.2052922 458.69637989 C284.67746272 458.00204171 288.16704666 457.67991933 291.6875 457.3125 C293.06929713 457.138987 294.45088341 456.96376399 295.83203125 456.78515625 C301.33259964 456.11298655 306.85182068 455.68941268 312.375 455.25 C323.17870602 454.38370503 333.93075009 453.25350188 344.69335938 451.98388672 C352.68743721 451.04511074 360.64819987 450.18076381 368.6875 449.75 C373.51401167 449.48001848 378.22314156 449.05048172 383 448.3125 C388.84709156 447.41747034 394.67066453 446.85155692 400.5625 446.375 C410.41597206 445.56422445 420.23864414 444.54277587 430.0625 443.4375 C430.8058963 443.35391235 431.5492926 443.27032471 432.31521606 443.1842041 C435.45716965 442.83045284 438.59901727 442.47577883 441.74073792 442.1199646 C451.18165535 441.05073984 460.62465955 440.00037295 470.06781006 438.95108032 C472.91003215 438.63500506 475.75214458 438.31795978 478.59423828 438.00073242 C487.05643921 437.05775837 495.5196464 436.1295606 503.98828125 435.24609375 C514.01934681 434.19857283 524.04150013 433.07692509 534.0625 431.9375 C534.99706024 431.83150482 535.93162048 431.72550964 536.89450073 431.61630249 C552.74811624 429.81594519 568.5891778 427.92178484 584.42236328 425.94995117 C593.02123911 424.88294943 601.62270752 423.89803978 610.24182129 423.00895691 C619.33984028 422.06465259 628.41902217 420.96933107 637.5 419.875 C641.16920071 419.43431033 644.8384944 418.99439859 648.5078125 418.5546875 C649.42084641 418.44515747 650.33388031 418.33562744 651.27458191 418.22277832 C657.38716323 417.49094957 663.50146742 416.77539437 669.6171875 416.0703125 C671.19914016 415.88723115 672.7810901 415.70412629 674.36303711 415.52099609 C676.60185785 415.26192532 678.84077058 415.00389112 681.08010864 414.74932861 C683.11492191 414.51795916 685.14927169 414.2825243 687.18359375 414.046875 C688.32497803 413.91635742 689.4663623 413.78583984 690.64233398 413.65136719 C693.51270765 413.32391725 693.51270765 413.32391725 696.4375 412.25 C698.0120671 412.08114515 699.59140862 411.95496506 701.171875 411.85546875 C711.15648294 411.16253865 720.97551872 410.31856154 730.8125 408.4375 C743.96119775 405.94032225 757.23912714 404.51599639 770.52880859 403.00073242 C778.91170915 402.04243209 787.26044525 401.03562315 795.59326172 399.69677734 C800.11177701 398.98700198 804.64898028 398.43939251 809.1875 397.875 C818.49831688 396.69277178 827.75085568 395.25940622 837.01074219 393.7331543 C845.30397302 392.38553651 853.61374493 391.3204602 861.95605469 390.32861328 C868.58859969 389.52516939 875.13118019 388.47372072 881.69458008 387.23413086 C885.84431536 386.47006714 889.91470333 386.00302264 894.125 385.75 C899.6671422 385.40276505 904.82848208 384.37695029 910.234375 383.140625 C915.61972249 381.95402301 921.06039691 381.08463704 926.5 380.1875 C927.48073486 380.02531982 928.46146973 379.86313965 929.47192383 379.69604492 C940.22178387 377.93551529 950.98523315 376.29953016 961.77514648 374.80419922 C971.53521275 373.44753047 981.24593782 372.09428366 990.87109375 369.9609375 C994.13712704 369.30987719 997.39090594 368.7877914 1000.68359375 368.29296875 C1006.51392003 367.41195269 1012.28183488 366.34463012 1018.0625 365.1875 C1030.46624116 362.7474042 1042.91282017 360.57377544 1055.36602783 358.402771 C1072.59048513 355.39828483 1089.75731999 352.29681492 1106.85546875 348.63671875 C1114.04862706 347.0998855 1121.27312751 345.74259078 1128.5 344.375 C1151.19946193 340.03956836 1173.78459298 335.05944481 1196.17382812 329.33032227 C1202.71609691 327.65870163 1209.28188614 326.14446297 1215.875 324.6875 C1224.49646329 322.76967051 1232.91875981 320.44618451 1241.36328125 317.87060547 C1244.955892 316.79569769 1248.57189656 315.80673165 1252.1875 314.8125 C1253.70058844 314.39347323 1255.2136083 313.97419872 1256.7265625 313.5546875 C1259.11377427 312.89307451 1261.50123555 312.23246067 1263.88964844 311.57519531 C1282.36754075 306.47561351 1300.89478123 301.04213399 1318.4375 293.25 C1320.17885422 292.51105408 1321.921143 291.77430884 1323.6640625 291.0390625 C1339.84180213 284.17602408 1355.57603339 277.21758147 1369.4375 266.25 C1370.02789063 265.82332031 1370.61828125 265.39664062 1371.2265625 264.95703125 C1376.69718805 260.84704846 1380.73764478 254.49574802 1383.4375 248.25 C1384.03117337 241.00718483 1382.53557266 235.73580303 1378.0625 229.875 C1370.08477157 221.11321964 1358.70748394 215.45204168 1348.25561523 210.17114258 C1347.01771787 209.54396562 1345.78559762 208.90528385 1344.55883789 208.2565918 C1339.36173037 205.55227348 1334.04300809 203.56612803 1328.5 201.6875 C1327.65759766 201.39681641 1326.81519531 201.10613281 1325.94726562 200.80664062 C1321.19961226 199.17292157 1316.43864333 197.5803805 1311.67358398 195.99829102 C1309.39264423 195.23498931 1307.11792205 194.45509212 1304.84375 193.671875 C1255.51525428 176.78387039 1203.49409627 166.30315725 1152.30078125 156.78808594 C1148.9239012 156.15348126 1145.55578967 155.48045052 1142.1875 154.80200195 C1114.25703177 149.1955754 1086.20749717 144.52420838 1058.06298828 140.13037109 C1054.38333019 139.55578763 1050.70463558 138.97564358 1047.02685547 138.38916016 C1046.17374786 138.25334534 1045.32064026 138.11753052 1044.44168091 137.9776001 C1042.87274275 137.72753176 1041.30394147 137.47660206 1039.73532104 137.22454834 C1033.55545275 136.24129328 1027.3599524 135.43460509 1021.1484375 134.6796875 C1018.4375 134.25 1018.4375 134.25 1017.4375 133.25 C1015.31013764 132.92489383 1013.17361721 132.65952484 1011.03515625 132.41796875 C1009.66958524 132.25986162 1008.30402584 132.10165411 1006.93847656 131.94335938 C1006.21535278 131.86110107 1005.492229 131.77884277 1004.74719238 131.6940918 C993.52808016 130.41305677 982.34129035 129.02165469 971.1875 127.25 C953.05362747 124.37451227 934.87982987 121.75475527 916.61816406 119.83544922 C910.20471242 119.13152692 903.81121122 118.27465549 897.4140625 117.4375 C880.84961682 115.28257277 864.27114499 113.25103581 847.6875 111.25 C846.96633499 111.16293415 846.24516998 111.0758683 845.50215149 110.98616409 C836.30593412 109.87600326 827.10920299 108.77017363 817.91210938 107.66729736 C814.98808005 107.31612415 812.06427026 106.96323938 809.140625 106.60888672 C784.49900668 103.62630492 759.79231082 101.24299404 735.09277344 98.79858398 C734.36576988 98.72662402 733.63876633 98.65466406 732.88973236 98.58052349 C729.98848611 98.29339622 727.0872396 98.00627262 724.1859436 97.71964836 C714.0762904 96.72049815 703.97095046 95.68618829 693.8671875 94.62890625 C683.56488059 93.5541079 673.26275902 92.57315383 662.9375 91.75 C661.42210086 91.62717852 659.90672061 91.50412365 658.39135742 91.38085938 C656.0490656 91.19053126 653.70674556 91.0006056 651.36430359 90.81213379 C646.85233544 90.44878482 642.34152259 90.07422195 637.83149719 89.68751526 C617.18402601 87.91715577 596.52754119 86.53461682 575.84082031 85.30688477 C564.53711062 84.63451178 553.24849249 83.89735033 541.96162415 82.98153687 C514.3179169 80.77998703 486.62489056 79.71486144 458.9151001 78.78027344 C455.29013868 78.65697819 451.66533157 78.52945118 448.04051971 78.40184593 C432.98361176 77.87258485 417.92678464 77.35217103 402.86523438 76.97314453 C402.00890034 76.95149388 401.1525663 76.92984324 400.27028275 76.90753651 C396.24016482 76.80659634 392.21001184 76.70984618 388.17962646 76.620224 C379.91806098 76.42771786 371.70432929 76.03523921 363.45779419 75.48728943 C356.35072143 75.04268023 349.23120188 74.91446682 342.11328125 74.75 C340.4384532 74.70938342 338.76362825 74.66863844 337.08880615 74.6277771 C332.58017157 74.51911996 328.07143454 74.41554666 323.56264114 74.31371307 C320.73614672 74.24968619 317.9096831 74.18441297 315.08322144 74.11895752 C269.87324506 73.0786681 224.65715752 72.62625064 179.4375 72.25 C185.75500759 79.84099912 192.77388795 86.72623355 199.75593567 93.69541931 C201.11782236 95.05845922 202.47949114 96.42171689 203.84096164 97.78517252 C207.57015781 101.51853403 211.30245526 105.24878144 215.03528488 108.97850955 C219.06498226 113.00594179 223.09179792 117.03625356 227.11898804 121.06619263 C235.0020411 128.9536897 242.88779204 136.83848414 250.77451728 144.72230922 C257.18110954 151.12664305 263.58672502 157.53195233 269.99164391 163.93795967 C271.35899586 165.30554148 271.35899586 165.30554148 272.7539711 166.7007512 C274.60572413 168.55282396 276.45747493 170.40489897 278.3092235 172.25697619 C295.17160694 189.12212893 312.03680908 205.98446027 328.9031975 222.84560761 C344.30697686 238.24463679 359.70816233 253.64625573 375.10717773 269.05004883 C392.4102326 286.3584542 409.71490553 303.66523886 427.02217311 320.96943194 C428.86559581 322.81253608 430.70901643 324.65564233 432.55243492 326.49875069 C433.45948086 327.40564235 434.3665268 328.31253402 435.30105898 329.24690725 C441.70514259 335.65012597 448.10806207 342.05450735 454.5105381 348.45933342 C462.30406432 356.25565738 470.09935572 364.05021113 477.89695094 371.84246551 C481.87815732 375.82103523 485.85854412 379.8004161 489.83678627 383.78195 C493.47301817 387.42114529 497.11152061 391.05805377 500.75190695 394.69309313 C502.07359505 396.01365729 503.39442665 397.33507931 504.7143477 398.65740966 C506.4982318 400.44430188 508.28511799 402.22813507 510.0728426 404.01118374 C510.85370463 404.79555752 510.85370463 404.79555752 511.65034166 405.59577724 C514.29276323 408.25613275 514.29276323 408.25613275 517.4375 410.25 C517.4375 410.91 517.4375 411.57 517.4375 412.25 C516.31408203 412.35022461 515.19066406 412.45044922 514.03320312 412.55371094 C465.46902023 416.81209033 465.46902023 416.81209033 417.02636719 422.24194336 C408.66031498 423.27728184 400.27785598 423.98871497 391.87109375 424.60400391 C390.92492187 424.67538574 389.97875 424.74676758 389.00390625 424.8203125 C388.16802979 424.87977051 387.33215332 424.93922852 386.47094727 425.00048828 C384.37299816 425.14268765 384.37299816 425.14268765 382.4375 426.25 C380.75959711 426.43778107 379.07556087 426.57193337 377.390625 426.6796875 C376.33166016 426.75131104 375.27269531 426.82293457 374.18164062 426.89672852 C373.02857422 426.97205811 371.87550781 427.0473877 370.6875 427.125 C360.08551665 427.86301231 349.51228458 428.7607017 338.9375 429.8125 C337.63844727 429.93931152 336.33939453 430.06612305 335.00097656 430.19677734 C333.7940918 430.31875488 332.58720703 430.44073242 331.34375 430.56640625 C329.73983398 430.72798218 329.73983398 430.72798218 328.10351562 430.89282227 C325.34042134 431.17821861 325.34042134 431.17821861 322.4375 432.25 C320.69392738 432.4432759 318.94527862 432.59228912 317.1953125 432.71484375 C315.59236328 432.83182617 315.59236328 432.83182617 313.95703125 432.95117188 C312.27673828 433.0681543 312.27673828 433.0681543 310.5625 433.1875 C308.39827706 433.34019058 306.23421842 433.49522425 304.0703125 433.65234375 C302.38201245 433.74451598 302.38201245 433.74451598 300.65960532 433.83855027 C297.59870776 434.06608655 294.74595996 434.60530726 291.76057357 435.3110798 C285.48430452 436.6280443 279.02890669 437.88824886 272.99815084 435.13727139 C266.76308683 431.0298509 261.74046787 425.53447429 256.60115051 420.17277527 C254.81567597 418.39662231 253.0251487 416.62553669 251.23006171 414.85909921 C247.34801239 411.0161385 243.5041402 407.14040264 239.68967438 403.23044205 C234.01824054 397.41742637 228.28157654 391.67217495 222.53000629 385.93857338 C212.85522317 376.29031099 203.23465702 366.58966261 193.64405251 356.85777855 C184.15095496 347.22522097 174.63410579 337.61717319 165.084692 328.04043007 C164.49029667 327.4443086 163.89590133 326.84818713 163.28349402 326.23400137 C160.26453133 323.20652877 157.24513381 320.17949023 154.22556516 317.15262202 C132.85340472 295.72730202 111.53465454 274.24955917 90.24731445 252.73999023 C69.57419385 231.85132653 48.87841482 210.98555622 28.15063477 190.15112305 C27.5115189 189.50869902 26.87240303 188.86627498 26.21392002 188.20438356 C18.52251495 180.47323696 10.83021873 172.74297742 3.13758482 165.01305356 C-8.670129 153.14798703 -20.47576967 141.28085821 -32.28034973 129.41267395 C-32.88169846 128.80810334 -33.48304719 128.20353274 -34.10261861 127.58064181 C-51.951105 109.63634255 -69.78357974 91.6762648 -87.60197159 73.70208293 C-89.85842911 71.42598948 -92.1150759 69.15008376 -94.37173667 66.87419183 C-97.11061968 64.11196087 -99.84941452 61.3496425 -102.58818054 58.58729553 C-103.11961069 58.05129211 -103.65104084 57.51528868 -104.19857493 56.96304272 C-110.41478231 50.6931506 -116.62915069 44.42144649 -122.84065812 38.14689807 C-127.07023932 33.87459632 -131.30222036 29.60468031 -135.53508107 25.33562747 C-137.25478522 23.6002747 -138.97358069 21.86402091 -140.69141331 20.12681546 C-143.01186401 17.7803093 -145.33533235 15.43683371 -147.65959454 13.09410381 C-148.33820625 12.40629059 -149.01681797 11.71847737 -149.71599367 11.00982133 C-150.33147693 10.39069219 -150.94696018 9.77156305 -151.58109444 9.13367242 C-152.37843872 8.32837515 -152.37843872 8.32837515 -153.19189097 7.50680925 C-154.55996557 6.13673375 -154.55996557 6.13673375 -156.5625 5.25 C-156.5625 4.59 -156.5625 3.93 -156.5625 3.25 C-104.37214727 1.09722582 -52.23675195 -0.04842063 0 0 Z " fill="#FEFEFE" transform="translate(434.5625,284.75)"/>
<path d="M0 0 C0.97354431 -0.00426498 1.94708862 -0.00852997 2.95013428 -0.01292419 C4.5434684 -0.01224442 4.5434684 -0.01224442 6.16899109 -0.0115509 C7.85546249 -0.01658882 7.85546249 -0.01658882 9.57600403 -0.02172852 C13.30712482 -0.03125239 17.03820067 -0.03318343 20.76933289 -0.03425598 C23.37652606 -0.03747141 25.98371906 -0.0408357 28.59091187 -0.04434204 C34.07283314 -0.05074288 39.55474236 -0.05222456 45.03666687 -0.05158997 C51.31314057 -0.05099442 57.58952686 -0.06143951 63.86597854 -0.07733363 C69.95065029 -0.09217734 76.03528145 -0.09557259 82.11997032 -0.09498024 C84.68271932 -0.0961473 87.24546921 -0.10049588 89.80820656 -0.10831261 C102.15035757 -0.14238486 114.42257493 -0.03482157 126.72709656 1.00749207 C127.62388028 1.08297429 128.52066401 1.15845652 129.44462299 1.23622608 C159.75853324 4.137355 189.4582638 17.20649655 209.26225281 40.84025574 C236.3933836 74.53437333 242.83676454 119.06906919 242.59355164 161.07121277 C242.59117493 162.15979584 242.58879822 163.24837891 242.58634949 164.36994934 C242.53204894 180.28570324 241.92805342 195.60155077 238.15605164 211.13371277 C237.99588562 211.85268738 237.8357196 212.57166199 237.67070007 213.31242371 C232.97783095 234.36557119 223.98269286 254.51357357 210.15605164 271.13371277 C209.38648132 272.06699402 208.61691101 273.00027527 207.82402039 273.96183777 C188.78628202 295.98287278 160.37548283 308.91504679 131.53739929 311.3553009 C128.67483967 311.5186585 125.81470615 311.63322074 122.94902039 311.72746277 C121.81663437 311.76668854 120.68424835 311.80591431 119.51754761 311.84632874 C101.77331644 312.37930517 84.01451806 312.28352788 66.26420593 312.26408386 C60.99222253 312.25834654 55.72028962 312.26170658 50.44830799 312.26765633 C46.3240929 312.2712947 42.19988953 312.27010909 38.07567406 312.26752853 C36.13234641 312.26687044 34.18901763 312.26764767 32.2456913 312.27000809 C-1.82727161 312.30238468 -1.82727161 312.30238468 -9.84394836 308.13371277 C-11.88585154 305.07085801 -12.11458156 304.28023403 -12.25178814 300.79678726 C-12.3085404 299.47338526 -12.3085404 299.47338526 -12.36643916 298.12324786 C-12.41170522 296.67693354 -12.41170522 296.67693354 -12.45788574 295.20140076 C-12.49542062 294.18173824 -12.5329555 293.16207572 -12.5716278 292.11151433 C-12.99708977 279.42753612 -13.00795845 266.74041975 -13.02095032 254.05070496 C-13.0267214 251.31329629 -13.03387027 248.57589149 -13.04086304 245.83848572 C-13.06035432 237.7174959 -13.07064093 229.59650532 -13.07959083 221.47549808 C-13.08311612 218.40960426 -13.08725958 215.34371142 -13.09143049 212.27781843 C-13.10984014 198.73855933 -13.12559912 185.19930012 -13.13332844 171.66003036 C-13.13523768 168.3696823 -13.13715816 165.07933424 -13.13911438 161.78898621 C-13.13959812 160.97138877 -13.14008186 160.15379133 -13.14058026 159.31141821 C-13.14892137 146.00028664 -13.17435137 132.68924371 -13.20669506 119.37815103 C-13.23971634 105.67600627 -13.25777118 91.97390685 -13.26097268 78.27172208 C-13.26313824 70.59188096 -13.27189803 62.91217067 -13.29743385 55.23236847 C-13.31907009 48.71160577 -13.32722494 42.19100594 -13.31746707 35.6702114 C-13.31290672 32.34398875 -13.31706842 29.01837704 -13.33422852 25.69215393 C-13.35176948 22.09236712 -13.34492965 18.49344692 -13.33169556 14.8936615 C-13.3426648 13.83640515 -13.35363405 12.7791488 -13.3649357 11.68985438 C-13.3563548 10.72968134 -13.34777391 9.7695083 -13.33893299 8.78023911 C-13.3399098 7.94934792 -13.34088661 7.11845674 -13.34189302 6.26238704 C-12.84394836 4.13371277 -12.84394836 4.13371277 -10.93471515 2.38575131 C-7.31956425 0.22084785 -4.15718111 0.00825462 0 0 Z M57.15605164 39.13371277 C56.39093313 42.251488 56.50404217 45.33428175 56.55477905 48.52987671 C56.55050693 49.50432545 56.5462348 50.47877418 56.54183322 51.48275167 C56.53356732 54.76294373 56.56114849 58.04187005 56.58842468 61.32194519 C56.58983437 63.66718516 56.58904473 66.01242734 56.58621216 68.35766602 C56.58477352 74.73764213 56.6142363 81.11715129 56.64908195 87.49701858 C56.67711288 93.48489424 56.68219361 99.47277 56.68734131 105.46069876 C56.69828832 117.32208801 56.73157341 129.18330548 56.77885437 141.04460144 C56.82473952 152.56770467 56.86013649 164.09076126 56.88139343 175.61393738 C56.88270705 176.32405415 56.88402067 177.03417093 56.88537409 177.7658064 C56.89189921 181.32820316 56.89821777 184.89060025 56.90443361 188.45299757 C56.95627925 218.01334687 57.04472682 247.5735268 57.15605164 277.13371277 C60.16354524 277.29836481 63.17111677 277.46127604 66.17875671 277.62321472 C67.0209803 277.66950264 67.86320389 277.71579056 68.7309494 277.76348114 C109.5530961 280.4530358 109.5530961 280.4530358 145.15605164 263.13371277 C164.84422208 243.48082578 168.84959697 212.5524142 170.84355164 186.13371277 C170.90609131 185.32435272 170.96863098 184.51499268 171.0330658 183.68110657 C174.24224033 141.65494937 175.71284129 87.75624307 147.40605164 53.38371277 C134.78942007 39.84686623 117.35561626 36.88124754 99.6547699 36.01069641 C94.45595994 35.83951471 89.25970432 35.80499703 84.05839539 35.81803894 C81.36659866 35.82125998 78.6758433 35.79740645 75.98417664 35.77238464 C74.25501133 35.77011653 72.52584312 35.76940588 70.79667664 35.77043152 C70.00086182 35.76122177 69.205047 35.75201202 68.38511658 35.74252319 C63.74871836 35.78125691 60.64384869 35.98941509 57.15605164 39.13371277 Z " fill="#ED1C24" transform="translate(12.843948364257813,1331.8662872314453)"/>
<path d="M0 0 C0.82193344 -0.00960754 1.64386688 -0.01921509 2.4907074 -0.02911377 C3.3781514 -0.03336365 4.2655954 -0.03761353 5.17993164 -0.04199219 C6.56251915 -0.0505423 6.56251915 -0.0505423 7.97303772 -0.05926514 C9.92911635 -0.06871743 11.88521092 -0.07525003 13.84130859 -0.07910156 C16.79757674 -0.08872875 19.75312588 -0.11971674 22.70922852 -0.15136719 C43.81379396 -0.27380186 43.81379396 -0.27380186 50.90258789 3.16113281 C53.46273267 6.00292074 54.28063357 7.85494211 54.33496094 11.66088867 C54.35475006 12.56153549 54.37453918 13.46218231 54.39492798 14.39012146 C54.40132294 15.37545364 54.4077179 16.36078583 54.41430664 17.37597656 C54.44130142 18.95276939 54.44130142 18.95276939 54.46884155 20.56141663 C54.52426171 24.07378444 54.55757319 27.58598362 54.59008789 31.09863281 C54.62312143 33.55762723 54.65690924 36.01661162 54.69140625 38.47558594 C54.87815902 53.05901054 54.93178411 67.64305045 54.95727539 82.22753906 C54.95854557 82.94939833 54.95981575 83.67125759 54.96112442 84.41499138 C54.98539858 100.33045358 54.93467556 116.24564644 54.90258789 132.16113281 C87.90258789 132.16113281 120.90258789 132.16113281 154.90258789 132.16113281 C154.8633875 105.28599994 154.8633875 105.28599994 154.8125 78.41088867 C154.79776727 68.27503734 154.82658375 58.13978892 154.88692474 48.00411224 C154.90272105 45.1369625 154.91316675 42.26982332 154.92340088 39.40264893 C154.94327061 34.80956336 154.99127201 30.21753969 155.06045723 25.62494087 C155.08261756 23.91690397 155.09642608 22.20873601 155.10142326 20.50056267 C155.11016072 18.15536702 155.1498616 15.81269453 155.19775391 13.46801758 C155.19362803 12.78155466 155.18950214 12.09509174 155.18525124 11.38782692 C155.29462268 7.82006845 155.68145412 6.39158775 158.18606567 3.78140259 C164.91281654 -0.23076821 172.5491121 -0.14741621 180.19555664 -0.13964844 C181.14521805 -0.14393356 182.09487946 -0.14821869 183.07331848 -0.15263367 C185.065798 -0.15833943 187.05829834 -0.15890518 189.05078125 -0.15454102 C192.09223757 -0.15136494 195.13273468 -0.17494277 198.17407227 -0.20019531 C200.11873251 -0.20246715 202.06339534 -0.20317234 204.00805664 -0.20214844 C204.91130173 -0.21135818 205.81454681 -0.22056793 206.74516296 -0.23005676 C211.89029915 -0.19241573 215.44098022 0.30970315 219.90258789 3.16113281 C224.9754784 8.40895058 224.03846281 15.46178317 224.00422668 22.28045654 C224.00258241 23.80475178 224.00258241 23.80475178 224.00090492 25.35984087 C223.99609167 28.7347131 223.98413043 32.10952113 223.97216797 35.484375 C223.96731241 37.87722056 223.96291242 40.27006708 223.95894337 42.66291428 C223.94980341 47.66680215 223.93770581 52.67067015 223.92319107 57.67454529 C223.90291528 64.73700507 223.89052565 71.79945774 223.88046265 78.86193848 C223.83938818 105.97005827 223.75808372 133.07807689 223.66687298 160.18606949 C223.65791259 162.86183914 223.64900231 165.53760894 223.64013672 168.21337891 C223.63793304 168.87785977 223.63572935 169.54234064 223.63345889 170.22695729 C223.59766425 181.11682565 223.57300517 192.00669347 223.55224087 202.89659968 C223.53047264 214.19283913 223.49724277 225.48900486 223.45388633 236.78518558 C223.43005196 243.08309298 223.41125579 249.38091973 223.40497398 255.67887115 C223.39893529 261.55973635 223.3789799 267.44038976 223.34831238 273.32117653 C223.33953302 275.47180271 223.33580936 277.62245653 223.33757973 279.7730999 C223.3392357 282.71227879 223.32250908 285.65081434 223.30131531 288.58990479 C223.30858667 289.85623934 223.30858667 289.85623934 223.31600493 291.1481564 C223.23524323 297.95362804 222.36437453 304.69934618 217.40258789 309.66113281 C213.9424199 311.73723361 211.31749945 312.2887771 207.35864258 312.32226562 C206.44048767 312.33187317 205.52233276 312.34148071 204.57635498 312.35137939 C203.0904184 312.35775421 203.0904184 312.35775421 201.57446289 312.36425781 C200.55209534 312.36995789 199.52972778 312.37565796 198.47637939 312.38153076 C196.31100499 312.39098078 194.14561621 312.39751475 191.98022461 312.40136719 C188.67934805 312.41105428 185.37909906 312.44207048 182.07836914 312.47363281 C179.97290408 312.48016493 177.86743457 312.48541458 175.76196289 312.48925781 C174.77943542 312.50160461 173.79690796 312.51395142 172.78460693 312.52667236 C167.03830454 312.50814433 162.97592812 311.92457736 157.90258789 309.16113281 C154.00731917 305.1360218 153.77722569 301.04506636 153.78233337 295.63092041 C153.78027138 293.94404869 153.78027138 293.94404869 153.77816772 292.22309875 C153.781763 290.99383163 153.78535828 289.76456451 153.7890625 288.49804688 C153.78891647 287.20023788 153.78877045 285.90242889 153.78862 284.56529236 C153.78833311 281.00984363 153.79421223 277.45442865 153.80119395 273.89898777 C153.80744564 270.18207025 153.80803273 266.46515195 153.80921936 262.74822998 C153.81232732 255.71120303 153.8205335 248.67419162 153.83056885 241.63717151 C153.8438367 232.12698848 153.84923422 222.6168012 153.85507107 213.10661125 C153.86447374 198.12477347 153.88439624 183.14296847 153.90258789 168.16113281 C121.23258789 167.83113281 88.56258789 167.50113281 54.90258789 167.16113281 C55.06758789 180.05175781 55.23258789 192.94238281 55.40258789 206.22363281 C55.49503851 213.93976094 55.58708572 221.6558618 55.67211914 229.37207031 C55.68234415 230.29930279 55.69256916 231.22653526 55.70310402 232.18186569 C56.03760762 262.72470638 56.03760762 262.72470638 56.07983398 276.45480347 C56.0866051 278.365728 56.09679172 280.27664385 56.1105957 282.18753052 C56.12819362 284.77647925 56.13274815 287.36510096 56.13305664 289.95410156 C56.14020187 290.66905792 56.14734711 291.38401428 56.15470886 292.12063599 C56.12675456 298.31035877 55.9234723 305.03388606 51.52758789 309.66113281 C47.74289725 311.82381318 44.5832175 312.28507711 40.26098633 312.33813477 C39.34613464 312.35097 38.43128296 312.36380524 37.4887085 312.37702942 C36.01521942 312.38810982 36.01521942 312.38810982 34.51196289 312.39941406 C33.49338196 312.40748581 32.47480103 312.41555756 31.425354 312.4238739 C29.27015882 312.43769507 27.11494192 312.44842601 24.9597168 312.45629883 C22.76206015 312.46781762 20.56443146 312.4882677 18.36694336 312.51782227 C15.18592374 312.56060232 12.00573487 312.57668293 8.82446289 312.58691406 C7.85023376 312.60442215 6.87600464 312.62193024 5.87225342 312.63996887 C0.17565123 312.62199959 -5.83906572 312.37400681 -10.09741211 308.16113281 C-12.63662088 302.42471412 -13.5360047 297.81587823 -13.49613953 291.58624268 C-13.50278635 290.75915007 -13.50943318 289.93205747 -13.51628143 289.07990146 C-13.53483886 286.32462462 -13.53231029 283.56978509 -13.52978516 280.81445312 C-13.53881197 278.82823073 -13.54914144 276.8420139 -13.56066895 274.85580444 C-13.58829732 269.45050651 -13.59754211 264.045314 -13.60352302 258.63995457 C-13.6129852 252.90191705 -13.63923806 247.16395479 -13.66352844 241.42596436 C-13.70731255 230.47408724 -13.73573778 219.52222457 -13.75885183 208.57028651 C-13.78529687 196.41379953 -13.82953743 184.25740008 -13.87508368 172.10097218 C-13.95351812 151.05550785 -14.00966158 130.01009065 -14.04613853 108.96451283 C-14.07000394 95.35467762 -14.11386391 81.74523669 -14.19028378 68.13559341 C-14.22566223 61.78765541 -14.25123509 55.43969254 -14.27336365 49.09169555 C-14.29116149 44.1802111 -14.32115798 39.2690173 -14.3609004 34.35766411 C-14.38162186 31.40731378 -14.38991372 28.45703118 -14.39441276 25.50661564 C-14.40111905 23.53392815 -14.4229044 21.5613096 -14.44526863 19.58873749 C-14.43825602 8.908292 -14.43825602 8.908292 -11.09741211 4.16113281 C-7.66283594 1.04854816 -4.58335559 0.04340317 0 0 Z " fill="#ED1C24" transform="translate(778.097412109375,1333.8388671875)"/>
<path d="M0 0 C0.84522217 0.00080566 1.69044434 0.00161133 2.5612793 0.00244141 C10.45396911 0.07418674 18.3141382 0.52635618 26.1875 1.0625 C27.3852002 1.14089111 28.58290039 1.21928223 29.81689453 1.30004883 C44.19551675 2.36050018 44.19551675 2.36050018 48.42189026 5.90335083 C50.66100621 8.52198241 51.50064144 10.63935476 52.55053711 13.91357422 C53.11850761 15.65317413 53.11850761 15.65317413 53.69795227 17.42791748 C54.09540146 18.68662659 54.49285065 19.94533569 54.90234375 21.2421875 C55.33087087 22.5683401 55.76055742 23.89411853 56.19132996 25.21954346 C57.1039918 28.03471593 58.00938467 30.85207823 58.90899658 33.67144775 C60.31626653 38.08057398 61.74078335 42.48399186 63.16943359 46.88623047 C63.64581419 48.35452232 64.12219359 49.82281455 64.59857178 51.29110718 C64.83334984 52.01461742 65.0681279 52.73812767 65.31002045 53.48356247 C66.01888292 55.66987539 66.72623807 57.85667065 67.4331665 60.04360962 C71.02973043 71.16498141 74.70302271 82.25783677 78.5 93.3125 C78.75535522 94.05698395 79.01071045 94.8014679 79.27380371 95.56851196 C83.17119327 106.90819751 87.25467435 118.17507225 91.42211914 129.41796875 C94.98502277 139.04581874 98.35906923 148.73051445 101.67871094 158.44458008 C104.48204094 166.63684109 107.37393954 174.79287857 110.3125 182.9375 C114.16463177 193.63778237 117.80609187 204.39539579 121.37033081 215.19372559 C124.81518537 225.62134388 128.38547607 235.99836293 132.04858398 246.35128784 C136.40915622 258.67827773 140.75408025 271.0113299 144.95068359 283.39526367 C145.43602236 284.82281578 145.92502895 286.24912697 146.41796875 287.67407227 C147.09758782 289.64135356 147.76337495 291.61280487 148.42578125 293.5859375 C148.99292847 295.25148682 148.99292847 295.25148682 149.5715332 296.95068359 C150.82565956 302.0030103 151.37364153 305.47461551 148.68530273 310.08569336 C143.49155982 313.38335047 138.43894803 312.88170665 132.41015625 312.81640625 C131.14409042 312.81881821 129.8780246 312.82123016 128.57359314 312.82371521 C125.89723533 312.82273607 123.22311546 312.81192924 120.54711914 312.78442383 C117.12943894 312.75037408 113.71326203 312.75635115 110.29551029 312.7750864 C107.02113924 312.78824263 103.74699501 312.7699251 100.47265625 312.75390625 C99.25063004 312.75886612 98.02860382 312.76382599 96.76954651 312.76893616 C90.37577266 312.68047479 86.19635572 312.57607747 81.375 308.1875 C74.74820964 300.80873343 72.44766484 289.98901578 69.52050781 280.75732422 C67.38052709 274.08835618 65.15271237 267.44835284 62.93511963 260.80487061 C62.13773527 258.41319813 61.34365677 256.0204502 60.55029297 253.62744141 C60.04922394 252.12009382 59.54808742 250.61276866 59.046875 249.10546875 C58.82208466 248.42589615 58.59729431 247.74632355 58.36569214 247.04615784 C57.22435737 243.62196871 56.01718987 240.24409605 54.70800781 236.88012695 C53.375 233.1875 53.375 233.1875 53.375 230.1875 C52.61550049 230.21779297 51.85600098 230.24808594 51.07348633 230.27929688 C27.23674768 231.17820935 3.41257364 231.27591343 -20.4375 231.25 C-21.23091671 231.24914398 -22.02433342 231.24828796 -22.84179306 231.24740601 C-32.76955168 231.23590898 -42.69727432 231.21568144 -52.625 231.1875 C-52.89192657 232.20021973 -52.89192657 232.20021973 -53.16424561 233.23339844 C-54.89681058 239.70905845 -56.82472465 246.08194405 -58.953125 252.4375 C-59.42126617 253.8447937 -59.42126617 253.8447937 -59.89886475 255.28051758 C-60.5562659 257.25407212 -61.21515877 259.22713035 -61.87548828 261.19970703 C-62.8628579 264.1512042 -63.84387771 267.1047557 -64.82421875 270.05859375 C-67.91428822 279.3400642 -71.06093647 288.60281614 -74.359375 297.8125 C-74.629776 298.58811279 -74.900177 299.36372559 -75.17877197 300.1628418 C-76.73540046 304.43865164 -78.28806256 307.96029974 -81.625 311.1875 C-85.48019931 312.54225901 -89.33569961 312.24198969 -93.38671875 312.1015625 C-95.31161133 312.03582031 -95.31161133 312.03582031 -97.27539062 311.96875 C-97.93772705 311.94296875 -98.60006348 311.9171875 -99.2824707 311.890625 C-101.31637026 311.81235105 -103.35042501 311.74538256 -105.38476562 311.6796875 C-115.36460314 311.31769843 -115.36460314 311.31769843 -117.625 310.1875 C-118.40143964 300.57669223 -115.5482558 292.57283868 -112.5 283.625 C-111.95718183 281.99590732 -111.41554157 280.36642175 -110.875 278.73657227 C-109.14709888 273.54598522 -107.38796743 268.36626202 -105.625 263.1875 C-105.04189947 261.47008356 -104.45889109 259.75263583 -103.87597656 258.03515625 C-101.53909182 251.15611544 -99.19426166 244.27983432 -96.83496094 237.40844727 C-93.08217226 226.47848873 -89.38779476 215.53123533 -85.75 204.5625 C-81.35236512 191.31237842 -76.88242458 178.08815931 -72.375 164.875 C-51.09597462 102.56221102 -51.09597462 102.56221102 -30.375 40.0625 C-30.05047852 39.06760559 -29.72595703 38.07271118 -29.39160156 37.04766846 C-28.48307297 34.25897089 -27.5766627 31.46960087 -26.671875 28.6796875 C-26.26220993 27.41703568 -26.26220993 27.41703568 -25.8442688 26.12887573 C-23.96756853 20.31700584 -22.1871828 14.48323068 -20.49462891 8.61474609 C-19.17868953 4.9417901 -17.87304356 3.35286237 -14.625 1.1875 C-9.7763939 0.08357629 -4.95052456 -0.00502133 0 0 Z M-1.625 71.1875 C-2.16688965 72.8586084 -2.16688965 72.8586084 -2.71972656 74.56347656 C-4.43635825 79.8554005 -6.15524156 85.14659143 -7.875 90.4375 C-8.19178711 91.41220245 -8.50857422 92.38690491 -8.83496094 93.3911438 C-12.80860926 105.61108779 -16.82067254 117.81661094 -20.91088867 129.99801636 C-25.86338397 144.74904476 -30.65679238 159.54735458 -35.375 174.375 C-35.68985352 175.36321747 -36.00470703 176.35143494 -36.32910156 177.36959839 C-37.21613363 180.15594358 -38.1008155 182.94302069 -38.984375 185.73046875 C-39.25247986 186.57337463 -39.52058472 187.41628052 -39.79681396 188.284729 C-41.06504536 191.67468251 -41.06504536 191.67468251 -41.625 195.1875 C-32.41902691 196.2751486 -23.27125108 196.31772468 -14.01953125 196.28515625 C-12.44341578 196.28328692 -10.86729973 196.28186545 -9.29118347 196.28086853 C-5.17970117 196.27708387 -1.06825523 196.26728909 3.04321289 196.25616455 C7.25341297 196.24586243 11.46361903 196.24135221 15.67382812 196.23632812 C23.90756861 196.22566243 32.14127976 196.20863582 40.375 196.1875 C39.33206847 190.64440604 38.22247019 185.23558505 36.44921875 179.87109375 C36.07192627 178.71706055 35.69463379 177.56302734 35.3059082 176.37402344 C34.8955835 175.1368457 34.48525879 173.89966797 34.0625 172.625 C33.15082423 169.84857737 32.24330982 167.07080035 31.3359375 164.29296875 C31.09678116 163.56248322 30.85762482 162.83199768 30.61122131 162.07937622 C28.81630731 156.58262159 27.07363352 151.07074777 25.3515625 145.55078125 C17.54757959 120.57308083 9.13168155 95.84682658 0.375 71.1875 C-0.285 71.1875 -0.945 71.1875 -1.625 71.1875 Z " fill="#ED1C24" transform="translate(1163.625,1332.8125)"/>
<path d="M0 0 C1.77141357 0.10501831 1.77141357 0.10501831 3.57861328 0.2121582 C17.20177171 1.18385696 17.20177171 1.18385696 22.3125 4.1875 C26.26064448 9.30303603 27.82402068 15.30692312 29.6875 21.4375 C30.39329688 23.69179309 31.10043268 25.94566723 31.80859375 28.19921875 C32.00161575 28.81667465 32.19463776 29.43413055 32.39350891 30.07029724 C41.6839676 59.78437819 51.73448105 89.20137751 62.21788025 118.51367188 C65.66647357 128.16113078 69.05961601 137.82759295 72.4375 147.5 C72.86122894 148.71287689 72.86122894 148.71287689 73.29351807 149.95025635 C74.43409779 153.21525226 75.57442164 156.48033705 76.71395874 159.74569702 C78.48263071 164.8136261 80.2552015 169.88017186 82.03062439 174.94573975 C89.29412269 195.67236649 96.45729257 216.43000029 103.51025391 237.22924805 C108.46750224 251.84358351 113.51563474 266.42223208 118.68432617 280.96313477 C118.91690628 281.61745483 119.14948639 282.2717749 119.38911438 282.94592285 C120.00426417 284.6746998 120.62095967 286.40292653 121.23779297 288.13110352 C124.61579827 297.73792959 124.61579827 297.73792959 124.6875 302.3125 C124.71585938 303.14007812 124.74421875 303.96765625 124.7734375 304.8203125 C124.14085611 308.06899322 122.86530587 309.12166653 120.3125 311.1875 C117.66322327 311.68870544 117.66322327 311.68870544 114.61352539 311.68920898 C112.89638084 311.70328041 112.89638084 311.70328041 111.14454651 311.71763611 C109.91219772 311.70640213 108.67984894 311.69516815 107.41015625 311.68359375 C106.1403038 311.68504898 104.87045135 311.68650421 103.56211853 311.68800354 C100.87590494 311.68634306 98.19110578 311.6768505 95.50512695 311.65405273 C92.0707069 311.62569598 88.63717668 311.62839839 85.20269108 311.64114285 C81.91762261 311.64979168 78.63269695 311.63464393 75.34765625 311.62109375 C73.50216942 311.62549721 73.50216942 311.62549721 71.61940002 311.62998962 C70.47148483 311.61730545 69.32356964 311.60462128 68.14086914 311.59155273 C67.13367325 311.58614975 66.12647736 311.58074677 65.08876038 311.57518005 C60.00426557 310.8651756 56.67116511 308.06428379 53.55395508 304.078125 C48.33586412 296.13143938 45.83036679 286.83646132 43.23138428 277.79251099 C38.88049075 262.68875745 33.78523627 248.01320025 28.07177734 233.36938477 C27.3125 231.1875 27.3125 231.1875 27.3125 229.1875 C26.54776367 229.21255615 25.78302734 229.2376123 24.99511719 229.26342773 C1.33389458 230.01585052 -22.32990479 230.41381415 -46 230.75 C-46.78145889 230.7611018 -47.56291779 230.7722036 -48.36805725 230.78364182 C-58.14115287 230.92212499 -67.91429939 231.05662976 -77.6875 231.1875 C-78.05399658 232.26193359 -78.42049316 233.33636719 -78.7980957 234.44335938 C-79.31981345 235.97265992 -79.841543 237.50195644 -80.36328125 239.03125 C-80.64444794 239.85542419 -80.92561462 240.67959839 -81.21530151 241.52874756 C-82.77993795 246.11436181 -84.34569681 250.69958901 -85.91333008 255.28417969 C-86.55941866 257.17382433 -87.20549608 259.06347278 -87.8515625 260.953125 C-88.3369474 262.37271515 -88.3369474 262.37271515 -88.83213806 263.82098389 C-90.62410517 269.06501759 -92.40892782 274.31137076 -94.18360901 279.5612793 C-95.17823554 282.50179542 -96.17715639 285.44084168 -97.17684937 288.37963867 C-97.63939437 289.74303137 -98.0998911 291.10712081 -98.55825806 292.47192383 C-99.19370549 294.36327625 -99.83690901 296.2520175 -100.48046875 298.140625 C-100.8364917 299.19411133 -101.19251465 300.24759766 -101.55932617 301.33300781 C-102.736582 304.3116867 -103.67898762 306.67951628 -105.6875 309.1875 C-110.41993133 311.09283376 -114.58481684 311.40644796 -119.64453125 311.234375 C-121.55975586 311.17056641 -121.55975586 311.17056641 -123.51367188 311.10546875 C-125.4869043 311.02232422 -125.4869043 311.02232422 -127.5 310.9375 C-128.84828305 310.89633353 -130.19659061 310.85596209 -131.54492188 310.81640625 C-141.42971221 310.44528779 -141.42971221 310.44528779 -143.6875 308.1875 C-144.6072025 298.91962954 -139.96324246 289.01681198 -137.0625 280.375 C-136.45165178 278.53038274 -135.8416566 276.68548282 -135.23242188 274.84033203 C-133.8526063 270.66949639 -132.46535019 266.50122126 -131.07324219 262.33447266 C-129.37552965 257.25267693 -127.68388285 252.16891672 -125.99707031 247.08349609 C-125.76488485 246.38352823 -125.53269939 245.68356037 -125.29347801 244.96238136 C-125.05828768 244.25335356 -124.82309734 243.54432575 -124.58078003 242.81381226 C-114.64020817 212.84641993 -104.62764675 182.90514986 -94.3795166 153.04135132 C-83.02075831 119.93093784 -71.82573879 86.77487836 -61.0506897 53.46986389 C-58.48847986 45.55756363 -55.89355304 37.65630172 -53.2722168 29.76339722 C-52.80932614 28.36869428 -52.34752288 26.97362983 -51.88696289 25.57815552 C-44.55452432 3.37139068 -44.55452432 3.37139068 -40.6875 0.1875 C-28.04493465 -3.03840532 -12.84801649 -0.83410059 0 0 Z M-26.6875 69.1875 C-38.56147916 103.35568269 -49.78800075 137.71958519 -60.5625 172.25 C-61.02919098 173.74209991 -61.02919098 173.74209991 -61.50531006 175.26434326 C-62.37926019 178.06192698 -63.24904138 180.86076674 -64.1171875 183.66015625 C-64.37894775 184.49757858 -64.64070801 185.33500092 -64.91040039 186.19779968 C-66.21271197 190.11886357 -66.21271197 190.11886357 -66.6875 194.1875 C-57.76733236 195.30155724 -48.93111281 195.31617066 -39.9609375 195.28515625 C-38.36097254 195.28328751 -36.761007 195.28186577 -35.16104126 195.28086853 C-30.98214087 195.27707921 -26.80327611 195.26728021 -22.62438965 195.25616455 C-18.34725425 195.24587269 -14.070113 195.24135437 -9.79296875 195.23632812 C-1.42446295 195.22565417 6.94401407 195.20862166 15.3125 195.1875 C11.18994938 180.96048611 6.81857879 166.81727704 2.375 152.6875 C2.00588501 151.5128418 1.63677002 150.33818359 1.25646973 149.12792969 C-7.18834002 122.2950079 -16.16573572 95.65694081 -25.6875 69.1875 C-26.0175 69.1875 -26.3475 69.1875 -26.6875 69.1875 Z " fill="#ED1C24" transform="translate(430.6875,1333.8125)"/>
<path d="M0 0 C1.55554596 -0.01354271 1.55554596 -0.01354271 3.14251709 -0.02735901 C5.31731313 -0.04176848 7.4921516 -0.05072485 9.66699219 -0.05444336 C12.98966387 -0.06642532 16.31052674 -0.11577451 19.6328125 -0.16601562 C21.75519935 -0.17547216 23.87759749 -0.18271087 26 -0.1875 C26.98760315 -0.20703232 27.9752063 -0.22656464 28.99273682 -0.24668884 C29.92100281 -0.24061111 30.8492688 -0.23453339 31.80566406 -0.22827148 C32.61489319 -0.23334213 33.42412231 -0.23841278 34.25787354 -0.24363708 C37.8486554 0.64768657 40.30654655 2.66339509 42.734375 5.37109375 C46.94842011 16.60136699 46.1359585 29.66731613 46.04321289 41.4765625 C46.03908195 43.44308237 46.03631946 45.40960552 46.0348053 47.37612915 C46.02875624 51.57860148 46.01335224 55.78089303 45.99043465 59.98330688 C45.95433626 66.64275466 45.94060575 73.30213986 45.92979431 79.96166992 C45.90576197 92.89870385 45.85908845 105.83560795 45.81020355 118.77256775 C45.74921393 135.2389275 45.69956813 151.70530291 45.66820902 168.17174625 C45.65490773 174.77740614 45.63113093 181.38291703 45.5988065 187.98851013 C45.58056563 192.11265692 45.57076442 196.23679478 45.56303978 200.36097336 C45.55774688 202.25709739 45.54900322 204.15321583 45.53633881 206.04930496 C45.39744735 227.42158322 46.14467657 250.82251922 61.234375 267.62109375 C73.95377431 279.39741972 91.25472095 282.22375711 107.97265625 281.72265625 C121.59409485 280.95501791 136.2414624 276.61221621 145.734375 266.37109375 C155.30817463 254.53353854 159.09569161 240.40248819 158.94796753 225.41908264 C158.94685412 224.4693545 158.9457407 223.51962635 158.94459355 222.54111856 C158.93856403 219.38676137 158.91822634 216.23266437 158.89794922 213.07836914 C158.89083062 210.80593125 158.88466039 208.53349023 158.87936401 206.26104736 C158.86629958 201.38240377 158.84720614 196.50383448 158.82357407 191.62523079 C158.7869191 183.91548905 158.76777408 176.20576503 158.7517395 168.49595642 C158.72795465 157.69316784 158.70000654 146.89040623 158.66552734 136.08764648 C158.6633471 135.40325642 158.66116685 134.71886635 158.65892054 134.01373719 C158.62764319 124.28323221 158.59043745 114.55275856 158.55092479 104.82228398 C158.54813817 104.13577157 158.54535154 103.44925917 158.54248047 102.74194336 C158.53829988 101.71343456 158.53829988 101.71343456 158.53403483 100.6641478 C158.48800257 89.2405351 158.45758311 77.81696313 158.43936169 66.39326853 C158.42625433 58.7234985 158.39509587 51.05407692 158.35072684 43.38442719 C158.32733238 38.62501255 158.32053602 33.86568364 158.31853104 29.10621643 C158.31422239 26.89340196 158.30299231 24.68058896 158.2844696 22.46784782 C158.26022732 19.45633603 158.26037837 16.44579836 158.26681519 13.43421936 C158.24729178 12.10934536 158.24729178 12.10934536 158.22737396 10.75770622 C158.27668697 4.86377229 158.27668697 4.86377229 160.63336372 2.32692623 C162.96134481 1.26783628 164.4926361 1.01050539 167.04296875 1.04296875 C167.86676025 1.0471582 168.69055176 1.05134766 169.53930664 1.05566406 C170.4080542 1.07725586 171.27680176 1.09884766 172.171875 1.12109375 C173.06189209 1.13495117 173.95190918 1.14880859 174.86889648 1.16308594 C177.49160937 1.21333584 180.11248389 1.28919165 182.734375 1.37109375 C183.44625977 1.3865625 184.15814453 1.40203125 184.89160156 1.41796875 C194.93283286 1.66004766 194.93283286 1.66004766 197.36266518 3.81554604 C199.46938771 7.74045045 199.14750602 11.4807562 199.11532593 15.86923218 C199.1200059 16.84282452 199.12468587 17.81641687 199.12950766 18.81951201 C199.14150052 22.09123787 199.1319832 25.36254816 199.12255859 28.63427734 C199.12662264 30.97665655 199.13196358 33.31903383 199.13848877 35.66140747 C199.15219543 42.03385579 199.14684786 48.4061588 199.13735151 54.77860975 C199.1305324 60.7743042 199.1357348 66.76998525 199.1401331 72.76567931 C199.14869284 85.37710516 199.13884719 97.98846565 199.122732 110.59988077 C199.1093593 121.39848857 199.11163052 132.19699947 199.12548828 142.99560547 C199.14158748 155.54662883 199.14783616 168.09759467 199.13865149 180.64862692 C199.13392433 187.28780773 199.13331774 193.92693472 199.14326096 200.56611252 C199.15197023 206.81894642 199.14583649 213.07159886 199.12857819 219.3244133 C199.12463273 221.61158956 199.12571384 223.89878125 199.13236618 226.18595123 C199.19112211 248.4521287 196.25766519 266.93024349 182.734375 285.37109375 C181.620625 286.94890625 181.620625 286.94890625 180.484375 288.55859375 C165.49899521 303.88455035 142.97529481 312.97765296 121.56445312 313.64575195 C119.79826441 313.66535533 118.03192158 313.67368416 116.265625 313.671875 C115.30523315 313.67616013 114.34484131 313.68044525 113.35534668 313.68486023 C111.33521302 313.69056133 109.31505885 313.69113527 107.29492188 313.68676758 C104.26915674 313.68362982 101.24439326 313.70704392 98.21875 313.73242188 C66.29908487 313.83598514 33.46325095 306.68461795 8.734375 285.37109375 C8.01765625 284.78714844 7.3009375 284.20320313 6.5625 283.6015625 C4.9095046 282.24280028 3.31456633 280.81387714 1.734375 279.37109375 C1.734375 278.71109375 1.734375 278.05109375 1.734375 277.37109375 C1.074375 277.37109375 0.414375 277.37109375 -0.265625 277.37109375 C-23.19401546 250.16720818 -23.56063399 217.64768962 -23.67034197 183.81806326 C-23.68625267 179.53240853 -23.71298802 175.24681934 -23.7383728 170.96121216 C-23.7797051 163.73767124 -23.81422191 156.5141258 -23.84375 149.29052734 C-23.88466091 139.28350293 -23.93746253 129.27656927 -23.9929719 119.2696166 C-24.07906053 103.70190256 -24.14848333 88.13421142 -24.20059061 72.56634665 C-24.23222422 63.1810768 -24.27994205 53.79640737 -24.36250496 44.41142845 C-24.40138044 39.84307073 -24.42946207 35.27469089 -24.45505905 30.70624161 C-24.46917542 28.68606291 -24.48849905 26.66591253 -24.51353836 24.64583969 C-24.54652044 21.95665359 -24.56145834 19.26796657 -24.57177734 16.57861328 C-24.58606655 15.8199358 -24.60035576 15.06125832 -24.61507797 14.27959061 C-24.60860206 9.5864948 -23.93419978 6.26773455 -21.265625 2.37109375 C-19.18121338 1.36070251 -19.18121338 1.36070251 -16.78222656 1.01928711 C-15.4466571 0.82651688 -15.4466571 0.82651688 -14.08410645 0.62985229 C-9.38324391 0.19827651 -4.71976546 0.02584026 0 0 Z " fill="#ED1C24" transform="translate(1801.265625,1340.62890625)"/>
<path d="M0 0 C3.90505496 5.09354994 2.62184692 12.22390033 2.625 18.3125 C2.63724609 19.55322266 2.64949219 20.79394531 2.66210938 22.07226562 C2.66404297 23.26400391 2.66597656 24.45574219 2.66796875 25.68359375 C2.67207764 26.77470459 2.67618652 27.86581543 2.68041992 28.98999023 C2.43834973 31.86490826 2.07618297 33.51678591 0.4375 35.875 C-2.96309695 36.98161884 -4.84399789 37.14815835 -8.203125 35.87109375 C-9.06421875 35.35675781 -9.9253125 34.84242187 -10.8125 34.3125 C-11.77027344 33.755625 -12.72804688 33.19875 -13.71484375 32.625 C-15.48717064 31.5358334 -17.25177392 30.43386469 -19.00390625 29.3125 C-34.3976605 19.57411181 -51.41269981 16.6549365 -69.3125 16.5 C-70.34157471 16.48606201 -71.37064941 16.47212402 -72.4309082 16.45776367 C-83.75502474 16.52748119 -94.52311556 18.71748029 -103.5625 25.875 C-110.79839622 33.39612864 -112.04138354 40.87976609 -111.87109375 51.1171875 C-110.6998823 65.37928132 -99.70120933 75.76366232 -89.5625 84.875 C-85.34854844 88.37829833 -80.98926558 91.64966989 -76.5625 94.875 C-75.88268066 95.37257813 -75.20286133 95.87015625 -74.50244141 96.3828125 C-67.04179542 101.83437114 -59.52915064 107.20833949 -51.95483398 112.50073242 C-39.66530488 121.10130202 -27.89592752 130.0951919 -17.0390625 140.46582031 C-16.04389607 141.41557241 -15.04376703 142.36014833 -14.0390625 143.29980469 C2.39203336 158.69874415 13.66676575 176.74634002 18.4375 198.875 C18.6125708 199.6489209 18.7876416 200.4228418 18.96801758 201.22021484 C22.74245422 222.5635451 18.69553378 245.17921933 7.140625 263.4453125 C-7.0173963 283.64322362 -29.0195465 293.19156823 -52.5625 297.875 C-82.73769487 303.17656942 -113.02543935 298.03234194 -142.4375 290.875 C-143.42959473 290.63813477 -144.42168945 290.40126953 -145.44384766 290.15722656 C-159.49993969 286.62101225 -159.49993969 286.62101225 -163.54296875 281.23828125 C-164.89976701 276.76240652 -164.961818 272.71247198 -164.875 268.0625 C-164.87822266 267.21107422 -164.88144531 266.35964844 -164.88476562 265.48242188 C-164.83824951 259.93008888 -164.64039441 254.09053611 -162.5625 248.875 C-159.5625 246.875 -159.5625 246.875 -157.63476562 246.96557617 C-151.72393162 248.37066509 -146.52124981 250.55037575 -141.0625 253.1875 C-116.71673947 264.46214996 -84.12608004 271.75145514 -57.75 264.125 C-49.42180557 260.86416535 -44.50906045 256.59236115 -40.44921875 248.71484375 C-37.299359 238.62696694 -38.74762816 226.17979343 -43.01953125 216.7265625 C-54.29607351 195.88637048 -73.63258319 182.20817088 -92.5625 168.875 C-104.55247372 160.39370273 -116.30983432 151.78878613 -127.4375 142.1875 C-128.04392334 141.66502686 -128.65034668 141.14255371 -129.27514648 140.60424805 C-141.02379866 130.34815341 -150.69664061 118.95617868 -157.5625 104.875 C-158.01367188 103.98167969 -158.46484375 103.08835937 -158.9296875 102.16796875 C-169.14909985 81.03374025 -169.18472575 54.44541939 -162.4375 32.25 C-156.08425446 14.55694992 -144.3296181 1.36492485 -127.5625 -7.125 C-94.00165573 -21.55126639 -30.36833278 -25.18349548 0 0 Z " fill="#ED1C24" transform="translate(1708.5625,1353.125)"/>
<path d="M0 0 C28.85985885 -0.20230503 57.71068452 -0.00010525 86.56689453 0.45263672 C88.46671082 0.48197296 88.46671082 0.48197296 90.40490723 0.51190186 C104.15624404 0.73065166 117.90311411 1.04038778 131.64892578 1.48779297 C133.44096687 1.54343666 133.44096687 1.54343666 135.26921082 1.60020447 C151.64387805 2.16694537 151.64387805 2.16694537 156.42236328 3.97998047 C158.93204167 7.48545619 158.33288655 11.39676862 158.19189453 15.57763672 C158.17352539 16.4798999 158.15515625 17.38216309 158.13623047 18.31176758 C158.07404818 20.88096325 157.98128626 23.44725401 157.87939453 26.01513672 C157.83105469 27.71669922 157.83105469 27.71669922 157.78173828 29.45263672 C157.43314498 35.45916752 157.43314498 35.45916752 155.29516602 37.60571289 C151.95905084 39.55208913 149.4698452 39.37074168 145.61767578 39.34326172 C144.50684883 39.34045197 144.50684883 39.34045197 143.37358093 39.33758545 C140.97936565 39.32745647 138.58591808 39.29627532 136.19189453 39.26513672 C134.72640487 39.25864291 133.26090897 39.25342798 131.79541016 39.24951172 C119.06702593 39.18256912 106.34244191 38.81825233 93.6184082 38.50244141 C91.69863746 38.45514605 89.77886563 38.40789432 87.85909271 38.36068726 C83.19918077 38.24600662 78.53928377 38.1307362 73.87939453 38.01513672 C73.88167285 38.57744258 73.88395118 39.13974843 73.88629854 39.71909386 C74.02056789 73.04613042 74.12351418 106.37309917 74.18578651 139.70034558 C74.19329075 143.70200493 74.20105668 147.70366373 74.20898438 151.70532227 C74.21055824 152.50198024 74.2121321 153.29863821 74.21375366 154.11943733 C74.23986137 167.01874712 74.28716867 179.91789647 74.34231131 192.81711108 C74.39842114 206.05297012 74.43174735 219.28874513 74.4439255 232.52471823 C74.45215817 240.6920779 74.47815925 248.85898408 74.52689333 257.02620416 C74.56235969 263.28895495 74.56612548 269.55136004 74.55804062 275.81419754 C74.55969309 278.38331457 74.57165215 280.95244856 74.59462738 283.52146339 C74.62444619 287.02727699 74.61731598 290.53114468 74.60092163 294.03700256 C74.61839868 295.05549587 74.63587573 296.07398917 74.65388238 297.12334591 C74.57864349 303.06877435 73.6593517 306.3818583 69.52053225 310.72945589 C60.89925485 317.48343574 44.43052874 313.90626413 34.37939453 313.14013672 C33.24630859 313.06150391 32.11322266 312.98287109 30.94580078 312.90185547 C10.9795668 311.41525156 10.9795668 311.41525156 5.87939453 308.01513672 C5.37045879 305.28499356 5.05866874 302.77123661 4.87939453 300.01513672 C4.8280838 299.27374451 4.77677307 298.53235229 4.72390747 297.76849365 C4.5716542 295.24454585 4.45648849 292.72120445 4.35205078 290.19482422 C4.31072525 289.20344452 4.26939972 288.21206482 4.2268219 287.19064331 C3.68050219 273.03864871 3.51149819 258.87827125 3.34696579 244.71775055 C3.3165294 242.10883846 3.28464132 239.4999465 3.25271606 236.89105225 C2.46003863 170.60567579 2.79324039 104.30393698 2.87939453 38.01513672 C1.51875633 38.02179855 1.51875633 38.02179855 0.13063049 38.02859497 C-8.4460666 38.06878131 -17.02273176 38.09917667 -25.59950161 38.11876106 C-30.00818864 38.12916827 -34.41679744 38.14327113 -38.82543945 38.16601562 C-43.08538131 38.18785375 -47.34524823 38.19972835 -51.60524178 38.2048912 C-53.22501873 38.20856736 -54.84479189 38.21574565 -56.46453667 38.22659683 C-73.10130989 38.33355105 -73.10130989 38.33355105 -80.12060547 36.01513672 C-84.91722247 28.82021122 -84.09504124 17.34587358 -82.58935547 9.10888672 C-80.92506884 3.53714452 -80.92506884 3.53714452 -78.45257568 1.93276978 C-75.45579553 0.75353321 -72.98370509 0.73404568 -69.76220703 0.69628906 C-68.45952881 0.67642944 -67.15685059 0.65656982 -65.81469727 0.6361084 C-64.38021032 0.62418897 -62.94572129 0.61251851 -61.51123047 0.60107422 C-60.01195294 0.58219513 -58.5126852 0.56252457 -57.01342773 0.54211426 C-52.97390796 0.48988166 -48.93435765 0.45033742 -44.89466858 0.41384125 C-41.51369704 0.38208913 -38.13280988 0.34385995 -34.75190353 0.30587959 C-23.16812672 0.17665926 -11.58419001 0.08268706 0 0 Z " fill="#ED1C24" transform="translate(1371.12060546875,1335.98486328125)"/>
<path d="M0 0 C0.95904236 -0.00145523 1.91808472 -0.00291046 2.90618896 -0.00440979 C4.92658538 -0.0027575 6.94699527 0.00872825 8.96728516 0.02954102 C12.02432113 0.05838098 15.07960626 0.05015713 18.13671875 0.03710938 C41.95472087 0.06118123 41.95472087 0.06118123 48.38752747 4.62446594 C50.51836209 7.45423592 50.31319256 9.85649873 50.46459961 13.37597656 C50.49739738 14.11307484 50.53019514 14.85017311 50.56398678 15.6096077 C51.01924207 27.17565312 51.03011122 38.76004575 51.10016012 50.33320308 C51.11807549 53.17970665 51.13919758 56.02618315 51.16029739 58.87266463 C51.22930846 68.18946755 51.28768286 77.50632409 51.3444438 86.82320833 C51.36435049 90.05346678 51.38509672 93.28371957 51.40588301 96.51397246 C51.70967855 143.74571141 51.92390691 190.97785259 51.97553021 238.21057332 C51.98151445 243.34176996 51.99236596 248.47294221 52.00515747 253.60412598 C52.02207586 260.4803459 52.02798977 267.35650022 52.02613449 274.2327404 C52.02693219 276.74878205 52.0310629 279.26482514 52.03874588 281.78085518 C52.04846588 285.19943905 52.04579869 288.61778981 52.03979492 292.03637695 C52.04541726 293.03300732 52.0510396 294.02963768 52.05683231 295.05646896 C52.01761359 303.60255763 52.01761359 303.60255763 49.796875 307.49609375 C45.30071494 311.75561381 41.88864947 312.60933818 35.84814453 312.65722656 C34.86677521 312.66683411 33.88540588 312.67644165 32.8742981 312.68634033 C31.29296585 312.69271515 31.29296585 312.69271515 29.6796875 312.69921875 C28.58977509 312.70491882 27.49986267 312.7106189 26.37692261 312.7164917 C24.07209237 312.72593308 21.76724869 312.73247225 19.46240234 312.73632812 C15.94214289 312.74603785 12.42246633 312.77707173 8.90234375 312.80859375 C6.66146179 312.81512372 4.42057567 312.82037422 2.1796875 312.82421875 C1.12951447 312.83656555 0.07934143 312.84891235 -1.00265503 312.8616333 C-6.47100315 312.84501744 -10.53140216 312.68182809 -15.203125 309.49609375 C-20.42473384 303.00436384 -20.35253057 297.09644179 -20.36134338 289.13772583 C-20.36628136 288.19064628 -20.37121934 287.24356674 -20.37630695 286.26778781 C-20.39167731 283.09014806 -20.40004272 279.91252853 -20.40844727 276.73486328 C-20.41802915 274.45573246 -20.42803941 272.1766034 -20.43844604 269.8974762 C-20.46554159 263.69028041 -20.48654511 257.48307705 -20.50644803 251.27585459 C-20.52839702 244.7381599 -20.55576821 238.20048783 -20.58250427 231.66281128 C-20.62699801 220.63817439 -20.66760161 209.61352754 -20.70581055 198.58886719 C-20.74476159 187.35220205 -20.78617746 176.1155503 -20.83081055 164.87890625 C-20.83353482 164.19290187 -20.83625909 163.5068975 -20.83906592 162.80010511 C-20.85003718 160.03908602 -20.86101624 157.27806696 -20.87200806 154.51704795 C-20.92279982 141.74184029 -20.97122654 128.96662351 -21.01953125 116.19140625 C-21.024348 114.92638354 -21.02916476 113.66136083 -21.03412747 112.35800409 C-21.04833625 108.61604013 -21.0623746 104.87407559 -21.0763092 101.1321106 C-21.08084085 99.92139912 -21.08537249 98.71068765 -21.09004146 97.46328795 C-21.11159439 91.5543217 -21.13049145 85.64536677 -21.14377689 79.73637581 C-21.14898036 77.46066406 -21.15420598 75.18495237 -21.15945435 72.90924072 C-21.16195086 71.7991286 -21.16444738 70.68901648 -21.16701955 69.5452646 C-21.185248 62.75964103 -21.22840305 55.9746588 -21.29027873 49.18929636 C-21.3284448 44.8106553 -21.35515114 40.43198546 -21.38003528 36.05325103 C-21.39454556 34.01417858 -21.41438195 31.97513585 -21.44000161 29.93617272 C-21.47465294 27.14582067 -21.49066244 24.35592762 -21.50254822 21.56539917 C-21.51744746 20.75885478 -21.53234669 19.95231039 -21.54769742 19.12132525 C-21.54510533 13.60983053 -20.46549545 9.53773137 -18.203125 4.49609375 C-13.3650105 -0.21144688 -6.34579578 -0.07873835 0 0 Z " fill="#ED1C24" transform="translate(625.203125,1333.50390625)"/>
</svg>
